<?xml version="1.0" encoding="utf-8"?>
<!-- Generator: Adobe Illustrator 27.5.0, SVG Export Plug-In . SVG Version: 6.00 Build 0)  -->
<svg version="1.1" id="Laag_1" xmlns="http://www.w3.org/2000/svg" xmlns:xlink="http://www.w3.org/1999/xlink" x="0px" y="0px"
	 viewBox="0 0 2002.9 908.4" style="enable-background:new 0 0 2002.9 908.4;" xml:space="preserve">
<style type="text/css">
	.st0{fill:#FFFFFF;}
</style>
<path class="st0" d="M33,105.6h7.8V61.7c0-11.8,0.3-21,0.9-27.7s2.3-12.4,5.1-17.2c2.8-5,6.8-9,12-12.2C64,1.6,69.8,0,76.2,0
	c9,0,17.2,3.5,24.5,10.4c4.8,4.6,7.9,10.3,9.2,17s1.9,16.2,1.9,28.5v49.7h26c10.1,0,17.7,2.5,23,7.3c5.3,4.9,7.9,11.2,7.9,18.8
	c0,9.8-3.8,16.7-11.3,20.6c-7.5,3.9-18.3,5.9-32.4,5.9h-13.3v134.1c0,11.4,0.4,20.2,1.2,26.3c0.8,6.2,2.9,11.1,6.2,15
	c3.4,3.8,8.9,5.7,16.5,5.7c4.2,0,9.8-0.8,16.9-2.3c7.1-1.5,12.7-2.3,16.7-2.3c5.7,0,10.9,2.4,15.5,7.1c4.6,4.7,6.9,10.6,6.9,17.5
	c0,11.8-6.2,20.8-18.7,27c-12.5,6.2-30.4,9.4-53.8,9.4c-22.2,0-39-3.8-50.5-11.5c-11.5-7.7-18.9-18.3-22.5-31.8
	c-3.6-13.5-5.3-31.6-5.3-54.2v-140h-9.4c-10.2,0-18-2.5-23.4-7.5c-5.4-5-8.1-11.3-8.1-19s2.8-13.9,8.4-18.8
	C14.1,107.9,22.3,105.5,33,105.6L33,105.6z"/>
<path class="st0" d="M402.2,354.6v-9.4c-8.5,11.1-17.4,20.3-26.8,27.8c-9.4,7.5-19.6,13-30.7,16.7c-11.1,3.6-23.8,5.5-38,5.5
	c-17.2,0-32.6-3.7-46.2-11c-13.6-7.3-24.2-17.4-31.6-30.2c-8.8-15.5-13.3-37.8-13.3-66.8V142.7c0-14.6,3.2-25.5,9.6-32.7
	s14.9-10.8,25.5-10.8c10.6,0,19.4,3.7,26,11c6.6,7.3,9.9,18.2,9.9,32.6v116.8c0,16.9,1.4,31.1,4.2,42.6c2.8,11.5,7.8,20.5,15,27
	c7.2,6.5,17,9.7,29.3,9.7s23.2-3.6,33.8-11c10.6-7.3,18.3-16.8,23.2-28.6c4-10.3,6-33,6-67.9v-88.7c0-14.4,3.3-25.3,9.9-32.6
	c6.6-7.3,15.2-11,25.8-11s19.1,3.6,25.5,10.8c6.4,7.2,9.6,18.1,9.6,32.7V354c0,13.9-3.1,24.3-9.2,31.3c-6.2,6.9-14.1,10.4-23.8,10.4
	s-17.7-3.6-24.1-10.8C405.4,377.7,402.2,367.6,402.2,354.6L402.2,354.6z"/>
<path class="st0" d="M543.4,105.6h7.8V61.7c0-11.8,0.3-21,0.9-27.7c0.6-6.7,2.3-12.4,5.1-17.2c2.8-5,6.8-9,12-12.2
	c5.2-3.1,11-4.7,17.4-4.7c9,0,17.2,3.5,24.5,10.4c4.8,4.6,7.9,10.3,9.2,17s1.9,16.2,1.9,28.5v49.7h26c10.1,0,17.7,2.5,23,7.3
	c5.3,4.9,7.9,11.2,7.9,18.8c0,9.8-3.8,16.7-11.3,20.6c-7.5,3.9-18.3,5.9-32.4,5.9h-13.3v134.1c0,11.4,0.4,20.2,1.2,26.3
	c0.8,6.2,2.9,11.1,6.2,15c3.4,3.8,8.9,5.7,16.5,5.7c4.2,0,9.8-0.8,16.9-2.3c7.1-1.5,12.7-2.3,16.7-2.3c5.7,0,10.9,2.4,15.5,7.1
	c4.6,4.7,6.9,10.6,6.9,17.5c0,11.8-6.2,20.8-18.7,27c-12.5,6.2-30.4,9.4-53.8,9.4c-22.2,0-39-3.8-50.5-11.5
	c-11.5-7.7-18.9-18.3-22.5-31.8c-3.6-13.5-5.3-31.6-5.3-54.2v-140h-9.4c-10.2,0-18-2.5-23.4-7.5c-5.4-5-8.1-11.3-8.1-19
	s2.8-13.9,8.4-18.8C524.5,107.9,532.7,105.5,543.4,105.6L543.4,105.6z"/>
<path class="st0" d="M994,247.4c0,21.7-3.3,41.8-9.9,60.1s-16.1,34.1-28.6,47.3c-12.5,13.2-27.4,23.3-44.7,30.3
	c-17.3,7-36.9,10.6-58.5,10.6c-21.7,0-40.8-3.6-58-10.7c-17.2-7.1-32-17.3-44.6-30.6c-12.6-13.3-22.1-28.9-28.6-47
	c-6.5-18.1-9.7-38.1-9.7-60s3.3-42.3,9.9-60.7c6.6-18.3,16-34,28.4-47s27.2-23,44.7-30.1c17.5-7,36.9-10.6,58-10.6s41,3.6,58.5,10.7
	c17.5,7.1,32.5,17.3,45,30.5s22,28.9,28.5,47C990.8,205.5,994,225.5,994,247.4L994,247.4z M922.7,247.4c0-29.7-6.4-52.9-19.1-69.5
	c-12.8-16.6-29.9-24.9-51.4-24.9c-13.9,0-26.1,3.7-36.7,11.1c-10.6,7.4-18.7,18.3-24.5,32.7c-5.7,14.4-8.6,31.3-8.6,50.5
	c0,19.2,2.8,35.7,8.4,50c5.6,14.3,13.7,25.2,24.2,32.7c10.5,7.6,22.9,11.3,37.1,11.3c21.5,0,38.6-8.3,51.4-25
	C916.3,299.8,922.7,276.8,922.7,247.4L922.7,247.4z"/>
<path class="st0" d="M1120.5,290.5v60.9c0,14.8-3.4,25.9-10.1,33.3c-6.8,7.4-15.4,11.1-25.8,11.1c-10.4,0-18.6-3.7-25.2-11.2
	c-6.6-7.5-9.9-18.5-9.9-33.1V148.3c0-32.8,11.5-49.2,34.6-49.2c11.8,0,20.3,3.8,25.5,11.5c5.2,7.7,8.1,19,8.6,33.9
	c8.5-15,17.2-26.3,26.1-33.9c8.9-7.7,20.9-11.5,35.8-11.5c14.9,0,29.4,3.8,43.4,11.5c14.1,7.7,21.1,17.8,21.1,30.5
	c0,8.9-3,16.3-9,22c-6,5.8-12.4,8.7-19.4,8.7c-2.6,0-8.9-1.6-18.9-4.9c-10-3.3-18.8-4.9-26.4-4.9c-10.4,0-18.9,2.8-25.5,8.4
	c-6.6,5.6-11.7,13.9-15.4,25c-3.6,11.1-6.2,24.2-7.5,39.4C1121.1,249.9,1120.4,268.5,1120.5,290.5L1120.5,290.5z"/>
<path class="st0" d="M79.3,657.3l57.5,165.7L198.7,650c4.8-13.9,9.6-23.7,14.3-29.5c4.7-5.8,11.8-8.7,21.3-8.7c9,0,16.7,3.1,23,9.4
	c6.3,6.2,9.5,13.5,9.5,21.6c0,3.2-0.6,6.9-1.7,11.2c-1.1,4.3-2.4,8.3-3.9,12c-1.5,3.7-3.2,8-5.1,12.8l-68.2,173.7
	c-1.9,5-4.4,11.3-7.4,19c-3,7.7-6.4,14.2-10.1,19.6c-3.7,5.4-8.3,9.7-13.8,12.7c-5.5,3-12.1,4.5-19.9,4.5c-10.1,0-18.1-2.4-24.1-7.1
	c-6-4.7-10.4-9.9-13.3-15.5c-2.9-5.6-7.7-16.7-14.4-33.3L17.4,680.8c-1.6-4.3-3.2-8.5-4.8-12.8c-1.7-4.3-3-8.6-4.2-13.1
	c-1.1-4.5-1.7-8.3-1.7-11.5c0-5,1.5-9.9,4.4-14.8s7-8.9,12.2-12s10.8-4.7,16.9-4.7c11.8,0,19.9,3.5,24.3,10.4S73.9,640.9,79.3,657.3
	L79.3,657.3z"/>
<path class="st0" d="M353.8,577.9c-9.9,0-18.3-3.1-25.4-9.4c-7-6.2-10.5-15-10.5-26.5c0-10.3,3.6-18.8,10.8-25.5
	c7.2-6.7,15.6-10,25.1-10c9.5,0,17.3,3,24.5,9.1c7.1,6.1,10.7,14.9,10.7,26.5c0,11.6-3.5,20-10.4,26.3
	C371.6,574.7,363.3,577.9,353.8,577.9L353.8,577.9z M388.9,653.2v210.8c0,14.6-3.4,25.7-10.1,33.1c-6.8,7.5-15.4,11.2-25.8,11.2
	s-18.9-3.8-25.4-11.5c-6.5-7.7-9.7-18.6-9.7-32.9V655.4c0-14.4,3.2-25.3,9.7-32.6c6.5-7.3,15-11,25.4-11s19,3.7,25.8,11
	C385.5,630.1,388.9,640.2,388.9,653.2L388.9,653.2z"/>
<path class="st0" d="M656.9,866.7v-7.2c-9.5,11.2-19,20.4-28.2,27.4c-9.3,7-19.3,12.4-30.2,16c-10.8,3.6-22.7,5.5-35.5,5.5
	c-17,0-32.7-3.7-47.2-11.1c-14.5-7.4-27-17.9-37.6-31.7c-10.6-13.7-18.6-29.8-24.1-48.4c-5.5-18.5-8.2-38.6-8.2-60.1
	c0-45.6,10.8-81.1,32.5-106.6c21.7-25.5,50.2-38.2,85.6-38.2c20.5,0,37.7,3.6,51.8,10.8c14.1,7.2,27.8,18.3,41.1,33.3V548.8
	c0-15,2.9-26.3,8.7-33.9c5.8-7.7,14.1-11.5,24.8-11.5c10.8,0,19,3.5,24.8,10.6c5.8,7,8.7,17.4,8.7,31.1v321.7
	c0,13.9-3.1,24.3-9.4,31.3s-14.3,10.4-24.2,10.4s-17.7-3.6-24.1-10.8C660.1,890.4,656.9,880.1,656.9,866.7L656.9,866.7z
	 M517.2,759.6c0,19.8,3,36.6,9,50.5c6,13.9,14.2,24.4,24.6,31.4c10.4,7,21.8,10.6,34.1,10.6s23.9-3.3,34.2-10
	c10.3-6.7,18.5-16.9,24.7-30.7c6.2-13.8,9.2-31,9.2-51.7c0-19.4-3.1-36.1-9.2-50.1c-6.2-14-14.5-24.7-25-32.1
	c-10.5-7.4-22-11.1-34.5-11.1c-12.5,0-24.6,3.8-34.9,11.3c-10.2,7.6-18.2,18.4-23.8,32.6C520,724.5,517.2,740.9,517.2,759.6
	L517.2,759.6z"/>
<path class="st0" d="M842.4,908.4c-10.8,0-20-3.6-27.8-10.7c-7.8-7.1-11.7-17.1-11.7-29.9c0-10.9,3.7-20.2,11.2-28.1
	c7.5-7.8,16.7-11.8,27.6-11.8s20.3,3.9,28,11.6c7.7,7.8,11.6,17.2,11.6,28.2c0,12.7-3.9,22.6-11.6,29.8
	C861.8,904.8,852.8,908.4,842.4,908.4z"/>
<path class="st0" d="M1216.7,818.1c0,9.1-2.6,18.8-7.9,29.1c-5.3,10.3-13.4,20.2-24.2,29.5c-10.8,9.4-24.5,16.9-41,22.6
	c-16.5,5.7-35,8.5-55.7,8.5c-43.9,0-78.1-13.1-102.8-39.4c-24.6-26.3-36.9-61.5-36.9-105.7c0-29.9,5.6-56.4,16.9-79.4
	c11.3-23,27.6-40.7,48.9-53.3c21.3-12.6,46.8-18.8,76.5-18.8c18.4,0,35.2,2.8,50.6,8.3c15.4,5.5,28.4,12.7,39,21.4
	c10.7,8.7,18.8,18,24.5,27.9c5.6,9.9,8.4,19.1,8.4,27.7c0,8.6-3.2,16.1-9.5,22.2c-6.3,6.1-14,9.1-23,9.1c-5.9,0-10.8-1.6-14.7-4.7
	c-3.9-3.1-8.3-8.1-13.1-15.1c-8.7-13.5-17.7-23.7-27.2-30.5c-9.5-6.8-21.5-10.2-36-10.2c-21,0-37.9,8.4-50.7,25.3
	c-12.8,16.8-19.3,39.9-19.3,69.1c0,13.7,1.6,26.3,4.9,37.8c3.3,11.5,8.1,21.3,14.3,29.4c6.2,8.1,13.8,14.3,22.6,18.4
	c8.8,4.2,18.5,6.3,29.1,6.3c14.2,0,26.4-3.4,36.6-10.2c10.1-6.8,19.1-17.1,26.9-31c4.3-8.2,9-14.6,14.1-19.2
	c5-4.6,11.2-6.9,18.5-6.9c8.7,0,15.9,3.4,21.6,10.2C1213.8,803.3,1216.7,810.5,1216.7,818.1L1216.7,818.1z"/>
<path class="st0" d="M1544.5,760.1c0,21.7-3.3,41.8-9.9,60.1s-16.1,34.1-28.6,47.3c-12.5,13.2-27.4,23.3-44.7,30.3
	c-17.3,7-36.9,10.6-58.5,10.6s-40.8-3.6-58-10.7c-17.2-7.1-32-17.3-44.6-30.6c-12.6-13.3-22.1-28.9-28.6-47
	c-6.5-18.1-9.7-38.1-9.7-60s3.3-42.3,9.9-60.7c6.6-18.3,16-34,28.4-47s27.2-23,44.7-30.1c17.5-7,36.9-10.6,58-10.6
	c21.2,0,41,3.6,58.5,10.7c17.5,7.1,32.5,17.3,45,30.5s22,28.9,28.5,47C1541.3,718.2,1544.5,738.2,1544.5,760.1L1544.5,760.1z
	 M1473.2,760.1c0-29.7-6.4-52.9-19.1-69.5c-12.8-16.6-29.9-24.9-51.4-24.9c-13.9,0-26.1,3.7-36.7,11.1s-18.7,18.3-24.5,32.7
	c-5.7,14.4-8.6,31.3-8.6,50.5s2.8,35.7,8.4,50c5.6,14.3,13.7,25.2,24.2,32.7c10.5,7.6,22.9,11.4,37.1,11.4c21.5,0,38.6-8.3,51.4-25
	C1466.8,812.5,1473.2,789.5,1473.2,760.1L1473.2,760.1z"/>
<path class="st0" d="M1836.6,765.5v97c0,15.3-3.4,26.8-10.1,34.5c-6.8,7.7-15.7,11.5-26.8,11.5s-19.5-3.8-26.1-11.5
	c-6.7-7.7-10-19.2-10-34.5V746.2c0-18.3-0.6-32.6-1.8-42.8c-1.2-10.2-4.5-18.5-9.9-25c-5.4-6.5-13.9-9.7-25.5-9.7
	c-23.2,0-38.5,8.2-45.9,24.6c-7.4,16.4-11.1,39.9-11.1,70.5v98.6c0,15.1-3.3,26.6-10,34.3c-6.7,7.8-15.5,11.6-26.4,11.6
	s-19.6-3.9-26.4-11.6c-6.9-7.8-10.3-19.2-10.3-34.3V653.8c0-13.7,3.1-24.1,9.2-31.3c6.2-7.1,14.3-10.7,24.3-10.7s17.8,3.3,24.3,10
	c6.5,6.7,9.8,15.9,9.8,27.7v6.9c12.3-15.1,25.5-26.3,39.5-33.4c14.1-7.1,29.7-10.7,46.8-10.7c17.2,0,33.2,3.7,46,11
	c12.8,7.3,23.4,18.3,31.7,33.1c12-15,24.8-26,38.5-33.3c13.7-7.2,28.9-10.8,45.5-10.8c19.4,0,36.2,3.9,50.2,11.8
	c14.1,7.8,24.5,19.1,31.5,33.7c6.1,13.2,9.1,33.9,9.1,62.3v142.4c0,15.3-3.4,26.8-10.1,34.5c-6.8,7.7-15.7,11.5-26.8,11.5
	s-19.6-3.9-26.4-11.6c-6.9-7.8-10.3-19.2-10.3-34.3V739.8c0-15.7-0.6-28.2-2-37.7c-1.3-9.4-4.8-17.4-10.5-23.8
	c-5.7-6.4-14.4-9.6-26-9.6c-9.4,0-18.3,2.9-26.7,8.5c-8.4,5.7-15,13.4-19.6,23C1839.2,712.5,1836.6,734.3,1836.6,765.5L1836.6,765.5
	z"/>
<path class="st0" d="M1810.3,245.7l-417-177.5c-10.6-4.5-22.2,3.5-22.2,15.3v355.1c0,11.8,11.6,19.8,22.2,15.3l417-177.5
	C1823.5,270.6,1823.5,251.3,1810.3,245.7L1810.3,245.7z"/>
</svg>
